<?xml version="1.0" encoding="UTF-8" standalone="no"?>
<!DOCTYPE svg PUBLIC "-//W3C//DTD SVG 1.1//EN"
 "http://www.w3.org/Graphics/SVG/1.1/DTD/svg11.dtd">
<!-- Generated by graphviz version 2.43.0 (0)
 -->
<!-- Title: G Pages: 1 -->
<svg width="1583pt" height="1040pt"
 viewBox="0.00 0.00 1140.00 749.00" xmlns="http://www.w3.org/2000/svg" xmlns:xlink="http://www.w3.org/1999/xlink">
<g id="graph0" class="graph" transform="scale(0.72 0.72) rotate(0) translate(4 745)">
<title>G</title>
<polygon fill="white" stroke="transparent" points="-4,4 -4,-745 1136,-745 1136,4 -4,4"/>
<!-- node1 -->
<g id="node1" class="node">
<title>node1</title>
<path fill="#9d4cef" stroke="black" d="M460.5,-704.5C460.5,-704.5 490.5,-704.5 490.5,-704.5 496.5,-704.5 502.5,-710.5 502.5,-716.5 502.5,-716.5 502.5,-728.5 502.5,-728.5 502.5,-734.5 496.5,-740.5 490.5,-740.5 490.5,-740.5 460.5,-740.5 460.5,-740.5 454.5,-740.5 448.5,-734.5 448.5,-728.5 448.5,-728.5 448.5,-716.5 448.5,-716.5 448.5,-710.5 454.5,-704.5 460.5,-704.5"/>
<text text-anchor="middle" x="475.5" y="-718.8" font-family="Times,serif" font-size="14.00">pony</text>
</g>
<!-- node2 -->
<g id="node2" class="node">
<title>node2</title>
<path fill="#9d4cef" stroke="black" d="M312.5,-616.5C312.5,-616.5 402.5,-616.5 402.5,-616.5 408.5,-616.5 414.5,-622.5 414.5,-628.5 414.5,-628.5 414.5,-640.5 414.5,-640.5 414.5,-646.5 408.5,-652.5 402.5,-652.5 402.5,-652.5 312.5,-652.5 312.5,-652.5 306.5,-652.5 300.5,-646.5 300.5,-640.5 300.5,-640.5 300.5,-628.5 300.5,-628.5 300.5,-622.5 306.5,-616.5 312.5,-616.5"/>
<text text-anchor="middle" x="357.5" y="-630.8" font-family="Times,serif" font-size="14.00">the best pony</text>
</g>
<!-- node1&#45;&gt;node2 -->
<g id="edge1" class="edge">
<title>node1&#45;&gt;node2</title>
<path fill="none" stroke="blue" d="M451.9,-704.3C433.9,-691.18 408.91,-672.97 389.16,-658.57"/>
<polygon fill="blue" stroke="blue" points="391.2,-655.73 381.05,-652.67 387.07,-661.39 391.2,-655.73"/>
<text text-anchor="middle" x="437" y="-674.8" font-family="Times,serif" font-size="14.00">yes</text>
</g>
<!-- node21 -->
<g id="node21" class="node">
<title>node21</title>
<path fill="#9d4cef" stroke="black" d="M497.5,-616.5C497.5,-616.5 619.5,-616.5 619.5,-616.5 625.5,-616.5 631.5,-622.5 631.5,-628.5 631.5,-628.5 631.5,-640.5 631.5,-640.5 631.5,-646.5 625.5,-652.5 619.5,-652.5 619.5,-652.5 497.5,-652.5 497.5,-652.5 491.5,-652.5 485.5,-646.5 485.5,-640.5 485.5,-640.5 485.5,-628.5 485.5,-628.5 485.5,-622.5 491.5,-616.5 497.5,-616.5"/>
<text text-anchor="middle" x="558.5" y="-630.8" font-family="Times,serif" font-size="14.00">the Lord Of Chaos</text>
</g>
<!-- node1&#45;&gt;node21 -->
<g id="edge20" class="edge">
<title>node1&#45;&gt;node21</title>
<path fill="none" stroke="blue" d="M492.3,-704.1C504.53,-691.42 521.26,-674.09 534.84,-660.02"/>
<polygon fill="blue" stroke="blue" points="537.59,-662.21 542.01,-652.58 532.55,-657.35 537.59,-662.21"/>
<text text-anchor="middle" x="531.5" y="-674.8" font-family="Times,serif" font-size="14.00">no</text>
</g>
<!-- node3 -->
<g id="node3" class="node">
<title>node3</title>
<path fill="#9d4cef" stroke="black" d="M166.5,-528.5C166.5,-528.5 228.5,-528.5 228.5,-528.5 234.5,-528.5 240.5,-534.5 240.5,-540.5 240.5,-540.5 240.5,-552.5 240.5,-552.5 240.5,-558.5 234.5,-564.5 228.5,-564.5 228.5,-564.5 166.5,-564.5 166.5,-564.5 160.5,-564.5 154.5,-558.5 154.5,-552.5 154.5,-552.5 154.5,-540.5 154.5,-540.5 154.5,-534.5 160.5,-528.5 166.5,-528.5"/>
<text text-anchor="middle" x="197.5" y="-542.8" font-family="Times,serif" font-size="14.00">got wings</text>
</g>
<!-- node2&#45;&gt;node3 -->
<g id="edge2" class="edge">
<title>node2&#45;&gt;node3</title>
<path fill="none" stroke="blue" d="M325.51,-616.3C300.35,-602.78 265.15,-583.86 238.03,-569.28"/>
<polygon fill="blue" stroke="blue" points="239.63,-566.17 229.17,-564.52 236.32,-572.34 239.63,-566.17"/>
<text text-anchor="middle" x="300" y="-586.8" font-family="Times,serif" font-size="14.00">yes</text>
</g>
<!-- node8 -->
<g id="node8" class="node">
<title>node8</title>
<path fill="#9d4cef" stroke="black" d="M293.5,-528.5C293.5,-528.5 421.5,-528.5 421.5,-528.5 427.5,-528.5 433.5,-534.5 433.5,-540.5 433.5,-540.5 433.5,-552.5 433.5,-552.5 433.5,-558.5 427.5,-564.5 421.5,-564.5 421.5,-564.5 293.5,-564.5 293.5,-564.5 287.5,-564.5 281.5,-558.5 281.5,-552.5 281.5,-552.5 281.5,-540.5 281.5,-540.5 281.5,-534.5 287.5,-528.5 293.5,-528.5"/>
<text text-anchor="middle" x="357.5" y="-542.8" font-family="Times,serif" font-size="14.00">the strongest pony</text>
</g>
<!-- node2&#45;&gt;node8 -->
<g id="edge7" class="edge">
<title>node2&#45;&gt;node8</title>
<path fill="none" stroke="blue" d="M357.5,-616.1C357.5,-604.25 357.5,-588.32 357.5,-574.79"/>
<polygon fill="blue" stroke="blue" points="361,-574.58 357.5,-564.58 354,-574.58 361,-574.58"/>
<text text-anchor="middle" x="366.5" y="-586.8" font-family="Times,serif" font-size="14.00">no</text>
</g>
<!-- node4 -->
<g id="node4" class="node">
<title>node4</title>
<path fill="#9d4cef" stroke="black" d="M12,-440.5C12,-440.5 105,-440.5 105,-440.5 111,-440.5 117,-446.5 117,-452.5 117,-452.5 117,-464.5 117,-464.5 117,-470.5 111,-476.5 105,-476.5 105,-476.5 12,-476.5 12,-476.5 6,-476.5 0,-470.5 0,-464.5 0,-464.5 0,-452.5 0,-452.5 0,-446.5 6,-440.5 12,-440.5"/>
<text text-anchor="middle" x="58.5" y="-454.8" font-family="Times,serif" font-size="14.00">Derpy Hooves</text>
</g>
<!-- node3&#45;&gt;node4 -->
<g id="edge3" class="edge">
<title>node3&#45;&gt;node4</title>
<path fill="none" stroke="blue" d="M169.71,-528.3C148.21,-515 118.26,-496.48 94.86,-482"/>
<polygon fill="blue" stroke="blue" points="96.59,-478.95 86.25,-476.67 92.91,-484.9 96.59,-478.95"/>
<text text-anchor="middle" x="149" y="-498.8" font-family="Times,serif" font-size="14.00">yes</text>
</g>
<!-- node5 -->
<g id="node5" class="node">
<title>node5</title>
<path fill="#9d4cef" stroke="black" d="M147,-440.5C147,-440.5 248,-440.5 248,-440.5 254,-440.5 260,-446.5 260,-452.5 260,-452.5 260,-464.5 260,-464.5 260,-470.5 254,-476.5 248,-476.5 248,-476.5 147,-476.5 147,-476.5 141,-476.5 135,-470.5 135,-464.5 135,-464.5 135,-452.5 135,-452.5 135,-446.5 141,-440.5 147,-440.5"/>
<text text-anchor="middle" x="197.5" y="-454.8" font-family="Times,serif" font-size="14.00">he has red hair</text>
</g>
<!-- node3&#45;&gt;node5 -->
<g id="edge4" class="edge">
<title>node3&#45;&gt;node5</title>
<path fill="none" stroke="blue" d="M197.5,-528.1C197.5,-516.25 197.5,-500.32 197.5,-486.79"/>
<polygon fill="blue" stroke="blue" points="201,-486.58 197.5,-476.58 194,-486.58 201,-486.58"/>
<text text-anchor="middle" x="206.5" y="-498.8" font-family="Times,serif" font-size="14.00">no</text>
</g>
<!-- node6 -->
<g id="node6" class="node">
<title>node6</title>
<path fill="#9d4cef" stroke="black" d="M47.5,-352.5C47.5,-352.5 103.5,-352.5 103.5,-352.5 109.5,-352.5 115.5,-358.5 115.5,-364.5 115.5,-364.5 115.5,-376.5 115.5,-376.5 115.5,-382.5 109.5,-388.5 103.5,-388.5 103.5,-388.5 47.5,-388.5 47.5,-388.5 41.5,-388.5 35.5,-382.5 35.5,-376.5 35.5,-376.5 35.5,-364.5 35.5,-364.5 35.5,-358.5 41.5,-352.5 47.5,-352.5"/>
<text text-anchor="middle" x="75.5" y="-366.8" font-family="Times,serif" font-size="14.00">ROMAN!</text>
</g>
<!-- node5&#45;&gt;node6 -->
<g id="edge5" class="edge">
<title>node5&#45;&gt;node6</title>
<path fill="none" stroke="blue" d="M173.1,-440.3C154.49,-427.18 128.65,-408.97 108.23,-394.57"/>
<polygon fill="blue" stroke="blue" points="110.04,-391.57 99.85,-388.67 106.01,-397.29 110.04,-391.57"/>
<text text-anchor="middle" x="157" y="-410.8" font-family="Times,serif" font-size="14.00">yes</text>
</g>
<!-- node7 -->
<g id="node7" class="node">
<title>node7</title>
<path fill="#9d4cef" stroke="black" d="M145.5,-352.5C145.5,-352.5 257.5,-352.5 257.5,-352.5 263.5,-352.5 269.5,-358.5 269.5,-364.5 269.5,-364.5 269.5,-376.5 269.5,-376.5 269.5,-382.5 263.5,-388.5 257.5,-388.5 257.5,-388.5 145.5,-388.5 145.5,-388.5 139.5,-388.5 133.5,-382.5 133.5,-376.5 133.5,-376.5 133.5,-364.5 133.5,-364.5 133.5,-358.5 139.5,-352.5 145.5,-352.5"/>
<text text-anchor="middle" x="201.5" y="-366.8" font-family="Times,serif" font-size="14.00">Sunset Shimmer</text>
</g>
<!-- node5&#45;&gt;node7 -->
<g id="edge6" class="edge">
<title>node5&#45;&gt;node7</title>
<path fill="none" stroke="blue" d="M198.31,-440.1C198.86,-428.25 199.6,-412.32 200.23,-398.79"/>
<polygon fill="blue" stroke="blue" points="203.74,-398.74 200.71,-388.58 196.74,-398.41 203.74,-398.74"/>
<text text-anchor="middle" x="209.5" y="-410.8" font-family="Times,serif" font-size="14.00">no</text>
</g>
<!-- node9 -->
<g id="node9" class="node">
<title>node9</title>
<path fill="#9d4cef" stroke="black" d="M290.5,-440.5C290.5,-440.5 352.5,-440.5 352.5,-440.5 358.5,-440.5 364.5,-446.5 364.5,-452.5 364.5,-452.5 364.5,-464.5 364.5,-464.5 364.5,-470.5 358.5,-476.5 352.5,-476.5 352.5,-476.5 290.5,-476.5 290.5,-476.5 284.5,-476.5 278.5,-470.5 278.5,-464.5 278.5,-464.5 278.5,-452.5 278.5,-452.5 278.5,-446.5 284.5,-440.5 290.5,-440.5"/>
<text text-anchor="middle" x="321.5" y="-454.8" font-family="Times,serif" font-size="14.00">Applejack</text>
</g>
<!-- node8&#45;&gt;node9 -->
<g id="edge8" class="edge">
<title>node8&#45;&gt;node9</title>
<path fill="none" stroke="blue" d="M350.21,-528.1C345.16,-516.01 338.32,-499.68 332.59,-485.99"/>
<polygon fill="blue" stroke="blue" points="335.74,-484.46 328.65,-476.58 329.28,-487.16 335.74,-484.46"/>
<text text-anchor="middle" x="355" y="-498.8" font-family="Times,serif" font-size="14.00">yes</text>
</g>
<!-- node10 -->
<g id="node10" class="node">
<title>node10</title>
<path fill="#9d4cef" stroke="black" d="M394.5,-440.5C394.5,-440.5 606.5,-440.5 606.5,-440.5 612.5,-440.5 618.5,-446.5 618.5,-452.5 618.5,-452.5 618.5,-464.5 618.5,-464.5 618.5,-470.5 612.5,-476.5 606.5,-476.5 606.5,-476.5 394.5,-476.5 394.5,-476.5 388.5,-476.5 382.5,-470.5 382.5,-464.5 382.5,-464.5 382.5,-452.5 382.5,-452.5 382.5,-446.5 388.5,-440.5 394.5,-440.5"/>
<text text-anchor="middle" x="500.5" y="-454.8" font-family="Times,serif" font-size="14.00">the shyest and most kind pony</text>
</g>
<!-- node8&#45;&gt;node10 -->
<g id="edge9" class="edge">
<title>node8&#45;&gt;node10</title>
<path fill="none" stroke="blue" d="M386.09,-528.3C408.21,-515 439.02,-496.48 463.09,-482"/>
<polygon fill="blue" stroke="blue" points="465.19,-484.82 471.96,-476.67 461.58,-478.82 465.19,-484.82"/>
<text text-anchor="middle" x="447.5" y="-498.8" font-family="Times,serif" font-size="14.00">no</text>
</g>
<!-- node11 -->
<g id="node11" class="node">
<title>node11</title>
<path fill="#9d4cef" stroke="black" d="M345.5,-352.5C345.5,-352.5 413.5,-352.5 413.5,-352.5 419.5,-352.5 425.5,-358.5 425.5,-364.5 425.5,-364.5 425.5,-376.5 425.5,-376.5 425.5,-382.5 419.5,-388.5 413.5,-388.5 413.5,-388.5 345.5,-388.5 345.5,-388.5 339.5,-388.5 333.5,-382.5 333.5,-376.5 333.5,-376.5 333.5,-364.5 333.5,-364.5 333.5,-358.5 339.5,-352.5 345.5,-352.5"/>
<text text-anchor="middle" x="379.5" y="-366.8" font-family="Times,serif" font-size="14.00">Fluttershy</text>
</g>
<!-- node10&#45;&gt;node11 -->
<g id="edge10" class="edge">
<title>node10&#45;&gt;node11</title>
<path fill="none" stroke="blue" d="M476.3,-440.3C457.84,-427.18 432.21,-408.97 411.97,-394.57"/>
<polygon fill="blue" stroke="blue" points="413.83,-391.61 403.65,-388.67 409.78,-397.31 413.83,-391.61"/>
<text text-anchor="middle" x="460" y="-410.8" font-family="Times,serif" font-size="14.00">yes</text>
</g>
<!-- node12 -->
<g id="node12" class="node">
<title>node12</title>
<path fill="#9d4cef" stroke="black" d="M456,-352.5C456,-352.5 673,-352.5 673,-352.5 679,-352.5 685,-358.5 685,-364.5 685,-364.5 685,-376.5 685,-376.5 685,-382.5 679,-388.5 673,-388.5 673,-388.5 456,-388.5 456,-388.5 450,-388.5 444,-382.5 444,-376.5 444,-376.5 444,-364.5 444,-364.5 444,-358.5 450,-352.5 456,-352.5"/>
<text text-anchor="middle" x="564.5" y="-366.8" font-family="Times,serif" font-size="14.00">the craziest and funniesst pony</text>
</g>
<!-- node10&#45;&gt;node12 -->
<g id="edge11" class="edge">
<title>node10&#45;&gt;node12</title>
<path fill="none" stroke="blue" d="M513.45,-440.1C522.71,-427.66 535.31,-410.73 545.67,-396.8"/>
<polygon fill="blue" stroke="blue" points="548.62,-398.7 551.79,-388.58 543.01,-394.52 548.62,-398.7"/>
<text text-anchor="middle" x="545.5" y="-410.8" font-family="Times,serif" font-size="14.00">no</text>
</g>
<!-- node13 -->
<g id="node13" class="node">
<title>node13</title>
<path fill="#9d4cef" stroke="black" d="M472.5,-264.5C472.5,-264.5 536.5,-264.5 536.5,-264.5 542.5,-264.5 548.5,-270.5 548.5,-276.5 548.5,-276.5 548.5,-288.5 548.5,-288.5 548.5,-294.5 542.5,-300.5 536.5,-300.5 536.5,-300.5 472.5,-300.5 472.5,-300.5 466.5,-300.5 460.5,-294.5 460.5,-288.5 460.5,-288.5 460.5,-276.5 460.5,-276.5 460.5,-270.5 466.5,-264.5 472.5,-264.5"/>
<text text-anchor="middle" x="504.5" y="-278.8" font-family="Times,serif" font-size="14.00">Pinkie Pie</text>
</g>
<!-- node12&#45;&gt;node13 -->
<g id="edge12" class="edge">
<title>node12&#45;&gt;node13</title>
<path fill="none" stroke="blue" d="M552.36,-352.1C543.68,-339.66 531.87,-322.73 522.15,-308.8"/>
<polygon fill="blue" stroke="blue" points="525.01,-306.78 516.42,-300.58 519.27,-310.79 525.01,-306.78"/>
<text text-anchor="middle" x="551" y="-322.8" font-family="Times,serif" font-size="14.00">yes</text>
</g>
<!-- node14 -->
<g id="node14" class="node">
<title>node14</title>
<path fill="#9d4cef" stroke="black" d="M579,-264.5C579,-264.5 814,-264.5 814,-264.5 820,-264.5 826,-270.5 826,-276.5 826,-276.5 826,-288.5 826,-288.5 826,-294.5 820,-300.5 814,-300.5 814,-300.5 579,-300.5 579,-300.5 573,-300.5 567,-294.5 567,-288.5 567,-288.5 567,-276.5 567,-276.5 567,-270.5 573,-264.5 579,-264.5"/>
<text text-anchor="middle" x="696.5" y="-278.8" font-family="Times,serif" font-size="14.00">the fastest and most faithful pony</text>
</g>
<!-- node12&#45;&gt;node14 -->
<g id="edge13" class="edge">
<title>node12&#45;&gt;node14</title>
<path fill="none" stroke="blue" d="M590.89,-352.3C611.22,-339.06 639.5,-320.64 661.67,-306.19"/>
<polygon fill="blue" stroke="blue" points="663.68,-309.06 670.15,-300.67 659.86,-303.19 663.68,-309.06"/>
<text text-anchor="middle" x="647.5" y="-322.8" font-family="Times,serif" font-size="14.00">no</text>
</g>
<!-- node15 -->
<g id="node15" class="node">
<title>node15</title>
<path fill="#9d4cef" stroke="black" d="M579,-176.5C579,-176.5 674,-176.5 674,-176.5 680,-176.5 686,-182.5 686,-188.5 686,-188.5 686,-200.5 686,-200.5 686,-206.5 680,-212.5 674,-212.5 674,-212.5 579,-212.5 579,-212.5 573,-212.5 567,-206.5 567,-200.5 567,-200.5 567,-188.5 567,-188.5 567,-182.5 573,-176.5 579,-176.5"/>
<text text-anchor="middle" x="626.5" y="-190.8" font-family="Times,serif" font-size="14.00">Rainbow Dash</text>
</g>
<!-- node14&#45;&gt;node15 -->
<g id="edge14" class="edge">
<title>node14&#45;&gt;node15</title>
<path fill="none" stroke="blue" d="M682.33,-264.1C672.12,-251.54 658.17,-234.41 646.77,-220.41"/>
<polygon fill="blue" stroke="blue" points="649.43,-218.13 640.41,-212.58 644,-222.55 649.43,-218.13"/>
<text text-anchor="middle" x="679" y="-234.8" font-family="Times,serif" font-size="14.00">yes</text>
</g>
<!-- node16 -->
<g id="node16" class="node">
<title>node16</title>
<path fill="#9d4cef" stroke="black" d="M716,-176.5C716,-176.5 1007,-176.5 1007,-176.5 1013,-176.5 1019,-182.5 1019,-188.5 1019,-188.5 1019,-200.5 1019,-200.5 1019,-206.5 1013,-212.5 1007,-212.5 1007,-212.5 716,-212.5 716,-212.5 710,-212.5 704,-206.5 704,-200.5 704,-200.5 704,-188.5 704,-188.5 704,-182.5 710,-176.5 716,-176.5"/>
<text text-anchor="middle" x="861.5" y="-190.8" font-family="Times,serif" font-size="14.00">the most beautiful and most selfless pony</text>
</g>
<!-- node14&#45;&gt;node16 -->
<g id="edge15" class="edge">
<title>node14&#45;&gt;node16</title>
<path fill="none" stroke="blue" d="M729.49,-264.3C755.43,-250.78 791.73,-231.86 819.71,-217.28"/>
<polygon fill="blue" stroke="blue" points="821.6,-220.25 828.85,-212.52 818.36,-214.04 821.6,-220.25"/>
<text text-anchor="middle" x="797.5" y="-234.8" font-family="Times,serif" font-size="14.00">no</text>
</g>
<!-- node17 -->
<g id="node17" class="node">
<title>node17</title>
<path fill="#9d4cef" stroke="black" d="M784,-88.5C784,-88.5 821,-88.5 821,-88.5 827,-88.5 833,-94.5 833,-100.5 833,-100.5 833,-112.5 833,-112.5 833,-118.5 827,-124.5 821,-124.5 821,-124.5 784,-124.5 784,-124.5 778,-124.5 772,-118.5 772,-112.5 772,-112.5 772,-100.5 772,-100.5 772,-94.5 778,-88.5 784,-88.5"/>
<text text-anchor="middle" x="802.5" y="-102.8" font-family="Times,serif" font-size="14.00">Rarity</text>
</g>
<!-- node16&#45;&gt;node17 -->
<g id="edge16" class="edge">
<title>node16&#45;&gt;node17</title>
<path fill="none" stroke="blue" d="M849.56,-176.1C841.11,-163.78 829.63,-147.05 820.13,-133.2"/>
<polygon fill="blue" stroke="blue" points="822.76,-130.85 814.22,-124.58 816.99,-134.81 822.76,-130.85"/>
<text text-anchor="middle" x="848" y="-146.8" font-family="Times,serif" font-size="14.00">yes</text>
</g>
<!-- node18 -->
<g id="node18" class="node">
<title>node18</title>
<path fill="#9d4cef" stroke="black" d="M863,-88.5C863,-88.5 1120,-88.5 1120,-88.5 1126,-88.5 1132,-94.5 1132,-100.5 1132,-100.5 1132,-112.5 1132,-112.5 1132,-118.5 1126,-124.5 1120,-124.5 1120,-124.5 863,-124.5 863,-124.5 857,-124.5 851,-118.5 851,-112.5 851,-112.5 851,-100.5 851,-100.5 851,-94.5 857,-88.5 863,-88.5"/>
<text text-anchor="middle" x="991.5" y="-102.8" font-family="Times,serif" font-size="14.00">greatest and the most powerful pony</text>
</g>
<!-- node16&#45;&gt;node18 -->
<g id="edge17" class="edge">
<title>node16&#45;&gt;node18</title>
<path fill="none" stroke="blue" d="M887.49,-176.3C907.51,-163.06 935.36,-144.64 957.2,-130.19"/>
<polygon fill="blue" stroke="blue" points="959.14,-133.1 965.55,-124.67 955.28,-127.27 959.14,-133.1"/>
<text text-anchor="middle" x="942.5" y="-146.8" font-family="Times,serif" font-size="14.00">no</text>
</g>
<!-- node19 -->
<g id="node19" class="node">
<title>node19</title>
<path fill="#9d4cef" stroke="black" d="M917.5,-0.5C917.5,-0.5 951.5,-0.5 951.5,-0.5 957.5,-0.5 963.5,-6.5 963.5,-12.5 963.5,-12.5 963.5,-24.5 963.5,-24.5 963.5,-30.5 957.5,-36.5 951.5,-36.5 951.5,-36.5 917.5,-36.5 917.5,-36.5 911.5,-36.5 905.5,-30.5 905.5,-24.5 905.5,-24.5 905.5,-12.5 905.5,-12.5 905.5,-6.5 911.5,-0.5 917.5,-0.5"/>
<text text-anchor="middle" x="934.5" y="-14.8" font-family="Times,serif" font-size="14.00">Trixie</text>
</g>
<!-- node18&#45;&gt;node19 -->
<g id="edge18" class="edge">
<title>node18&#45;&gt;node19</title>
<path fill="none" stroke="blue" d="M979.97,-88.1C971.8,-75.78 960.71,-59.05 951.53,-45.2"/>
<polygon fill="blue" stroke="blue" points="954.27,-42.99 945.82,-36.58 948.43,-46.85 954.27,-42.99"/>
<text text-anchor="middle" x="978" y="-58.8" font-family="Times,serif" font-size="14.00">yes</text>
</g>
<!-- node20 -->
<g id="node20" class="node">
<title>node20</title>
<path fill="#9d4cef" stroke="black" d="M993.5,-0.5C993.5,-0.5 1103.5,-0.5 1103.5,-0.5 1109.5,-0.5 1115.5,-6.5 1115.5,-12.5 1115.5,-12.5 1115.5,-24.5 1115.5,-24.5 1115.5,-30.5 1109.5,-36.5 1103.5,-36.5 1103.5,-36.5 993.5,-36.5 993.5,-36.5 987.5,-36.5 981.5,-30.5 981.5,-24.5 981.5,-24.5 981.5,-12.5 981.5,-12.5 981.5,-6.5 987.5,-0.5 993.5,-0.5"/>
<text text-anchor="middle" x="1048.5" y="-14.8" font-family="Times,serif" font-size="14.00">Twilight Sparkle</text>
</g>
<!-- node18&#45;&gt;node20 -->
<g id="edge19" class="edge">
<title>node18&#45;&gt;node20</title>
<path fill="none" stroke="blue" d="M1003.03,-88.1C1011.2,-75.78 1022.29,-59.05 1031.47,-45.2"/>
<polygon fill="blue" stroke="blue" points="1034.57,-46.85 1037.18,-36.58 1028.73,-42.99 1034.57,-46.85"/>
<text text-anchor="middle" x="1031.5" y="-58.8" font-family="Times,serif" font-size="14.00">no</text>
</g>
<!-- node22 -->
<g id="node22" class="node">
<title>node22</title>
<path fill="#9d4cef" stroke="black" d="M535,-528.5C535,-528.5 582,-528.5 582,-528.5 588,-528.5 594,-534.5 594,-540.5 594,-540.5 594,-552.5 594,-552.5 594,-558.5 588,-564.5 582,-564.5 582,-564.5 535,-564.5 535,-564.5 529,-564.5 523,-558.5 523,-552.5 523,-552.5 523,-540.5 523,-540.5 523,-534.5 529,-528.5 535,-528.5"/>
<text text-anchor="middle" x="558.5" y="-542.8" font-family="Times,serif" font-size="14.00">Discord</text>
</g>
<!-- node21&#45;&gt;node22 -->
<g id="edge21" class="edge">
<title>node21&#45;&gt;node22</title>
<path fill="none" stroke="blue" d="M558.5,-616.1C558.5,-604.25 558.5,-588.32 558.5,-574.79"/>
<polygon fill="blue" stroke="blue" points="562,-574.58 558.5,-564.58 555,-574.58 562,-574.58"/>
<text text-anchor="middle" x="571" y="-586.8" font-family="Times,serif" font-size="14.00">yes</text>
</g>
<!-- node23 -->
<g id="node23" class="node">
<title>node23</title>
<path fill="#9d4cef" stroke="black" d="M636.5,-528.5C636.5,-528.5 692.5,-528.5 692.5,-528.5 698.5,-528.5 704.5,-534.5 704.5,-540.5 704.5,-540.5 704.5,-552.5 704.5,-552.5 704.5,-558.5 698.5,-564.5 692.5,-564.5 692.5,-564.5 636.5,-564.5 636.5,-564.5 630.5,-564.5 624.5,-558.5 624.5,-552.5 624.5,-552.5 624.5,-540.5 624.5,-540.5 624.5,-534.5 630.5,-528.5 636.5,-528.5"/>
<text text-anchor="middle" x="664.5" y="-542.8" font-family="Times,serif" font-size="14.00">a dragon</text>
</g>
<!-- node21&#45;&gt;node23 -->
<g id="edge22" class="edge">
<title>node21&#45;&gt;node23</title>
<path fill="none" stroke="blue" d="M579.7,-616.3C595.58,-603.41 617.52,-585.61 635.1,-571.35"/>
<polygon fill="blue" stroke="blue" points="637.78,-573.69 643.34,-564.67 633.37,-568.25 637.78,-573.69"/>
<text text-anchor="middle" x="627.5" y="-586.8" font-family="Times,serif" font-size="14.00">no</text>
</g>
<!-- node24 -->
<g id="node24" class="node">
<title>node24</title>
<path fill="#9d4cef" stroke="black" d="M648.5,-440.5C648.5,-440.5 680.5,-440.5 680.5,-440.5 686.5,-440.5 692.5,-446.5 692.5,-452.5 692.5,-452.5 692.5,-464.5 692.5,-464.5 692.5,-470.5 686.5,-476.5 680.5,-476.5 680.5,-476.5 648.5,-476.5 648.5,-476.5 642.5,-476.5 636.5,-470.5 636.5,-464.5 636.5,-464.5 636.5,-452.5 636.5,-452.5 636.5,-446.5 642.5,-440.5 648.5,-440.5"/>
<text text-anchor="middle" x="664.5" y="-454.8" font-family="Times,serif" font-size="14.00">Spike</text>
</g>
<!-- node23&#45;&gt;node24 -->
<g id="edge23" class="edge">
<title>node23&#45;&gt;node24</title>
<path fill="none" stroke="blue" d="M664.5,-528.1C664.5,-516.25 664.5,-500.32 664.5,-486.79"/>
<polygon fill="blue" stroke="blue" points="668,-486.58 664.5,-476.58 661,-486.58 668,-486.58"/>
<text text-anchor="middle" x="677" y="-498.8" font-family="Times,serif" font-size="14.00">yes</text>
</g>
<!-- node25 -->
<g id="node25" class="node">
<title>node25</title>
<path fill="#9d4cef" stroke="black" d="M722.5,-440.5C722.5,-440.5 840.5,-440.5 840.5,-440.5 846.5,-440.5 852.5,-446.5 852.5,-452.5 852.5,-452.5 852.5,-464.5 852.5,-464.5 852.5,-470.5 846.5,-476.5 840.5,-476.5 840.5,-476.5 722.5,-476.5 722.5,-476.5 716.5,-476.5 710.5,-470.5 710.5,-464.5 710.5,-464.5 710.5,-452.5 710.5,-452.5 710.5,-446.5 716.5,-440.5 722.5,-440.5"/>
<text text-anchor="middle" x="781.5" y="-454.8" font-family="Times,serif" font-size="14.00">green or red fruit</text>
</g>
<!-- node23&#45;&gt;node25 -->
<g id="edge24" class="edge">
<title>node23&#45;&gt;node25</title>
<path fill="none" stroke="blue" d="M687.9,-528.3C705.67,-515.24 730.31,-497.13 749.85,-482.77"/>
<polygon fill="blue" stroke="blue" points="752.16,-485.41 758.15,-476.67 748.01,-479.77 752.16,-485.41"/>
<text text-anchor="middle" x="739.5" y="-498.8" font-family="Times,serif" font-size="14.00">no</text>
</g>
<!-- node26 -->
<g id="node26" class="node">
<title>node26</title>
<path fill="#9d4cef" stroke="black" d="M724.5,-352.5C724.5,-352.5 756.5,-352.5 756.5,-352.5 762.5,-352.5 768.5,-358.5 768.5,-364.5 768.5,-364.5 768.5,-376.5 768.5,-376.5 768.5,-382.5 762.5,-388.5 756.5,-388.5 756.5,-388.5 724.5,-388.5 724.5,-388.5 718.5,-388.5 712.5,-382.5 712.5,-376.5 712.5,-376.5 712.5,-364.5 712.5,-364.5 712.5,-358.5 718.5,-352.5 724.5,-352.5"/>
<text text-anchor="middle" x="740.5" y="-366.8" font-family="Times,serif" font-size="14.00">apple</text>
</g>
<!-- node25&#45;&gt;node26 -->
<g id="edge25" class="edge">
<title>node25&#45;&gt;node26</title>
<path fill="none" stroke="blue" d="M773.2,-440.1C767.44,-428.01 759.66,-411.68 753.13,-397.99"/>
<polygon fill="blue" stroke="blue" points="756.11,-396.1 748.64,-388.58 749.79,-399.12 756.11,-396.1"/>
<text text-anchor="middle" x="776" y="-410.8" font-family="Times,serif" font-size="14.00">yes</text>
</g>
<!-- node27 -->
<g id="node27" class="node">
<title>node27</title>
<path fill="#9d4cef" stroke="black" d="M799,-352.5C799,-352.5 846,-352.5 846,-352.5 852,-352.5 858,-358.5 858,-364.5 858,-364.5 858,-376.5 858,-376.5 858,-382.5 852,-388.5 846,-388.5 846,-388.5 799,-388.5 799,-388.5 793,-388.5 787,-382.5 787,-376.5 787,-376.5 787,-364.5 787,-364.5 787,-358.5 793,-352.5 799,-352.5"/>
<text text-anchor="middle" x="822.5" y="-366.8" font-family="Times,serif" font-size="14.00">Nobody</text>
</g>
<!-- node25&#45;&gt;node27 -->
<g id="edge26" class="edge">
<title>node25&#45;&gt;node27</title>
<path fill="none" stroke="blue" d="M789.8,-440.1C795.56,-428.01 803.34,-411.68 809.87,-397.99"/>
<polygon fill="blue" stroke="blue" points="813.21,-399.12 814.36,-388.58 806.89,-396.1 813.21,-399.12"/>
<text text-anchor="middle" x="812.5" y="-410.8" font-family="Times,serif" font-size="14.00">no</text>
</g>
</g>
</svg>
